<?xml version="1.0" encoding="UTF-8" standalone="no"?>
<!DOCTYPE svg PUBLIC "-//W3C//DTD SVG 1.1//EN" "http://www.w3.org/Graphics/SVG/1.1/DTD/svg11.dtd">
<svg width="100%" height="100%" viewBox="0 0 6323 1328" version="1.1" xmlns="http://www.w3.org/2000/svg" xmlns:xlink="http://www.w3.org/1999/xlink" xml:space="preserve" xmlns:serif="http://www.serif.com/" style="fill-rule:evenodd;clip-rule:evenodd;stroke-linejoin:round;stroke-miterlimit:2;">
    <g transform="matrix(5.55556,0,0,5.55556,0,0)">
        <g id="logo-logo" transform="matrix(0.763519,0,0,0.763519,134.054,118)">
            <g>
                <g transform="matrix(1.34732,0,0,1.34732,-168.415,-168.939)">
                    <path d="M175.646,180.087C175.45,180.282 175.277,180.477 175.082,180.629C174.583,181.106 174.084,181.562 173.585,182.018C172.804,182.733 172.023,183.406 171.22,184.057C170.764,184.426 170.33,184.794 169.853,185.163C169.528,185.445 169.181,185.706 168.834,185.966L168.812,185.966C168.248,186.422 167.662,186.834 167.076,187.246C165.682,188.26 164.289,189.089 162.353,190.272C160.925,191.145 159.475,191.983 157.99,192.754C157.524,192.996 157.054,193.232 156.576,193.451C151.673,195.815 146.488,197.659 141.043,198.874C140.566,198.983 140.11,199.091 139.633,199.178C139.524,199.2 139.416,199.221 139.307,199.243C138.657,199.373 138.006,199.503 137.355,199.612C136.227,199.807 135.077,199.981 133.906,200.111C132.973,200.219 132.04,200.328 131.085,200.393C130.933,200.415 130.76,200.436 130.586,200.436C129.74,200.501 128.894,200.545 128.048,200.588C127.701,200.61 127.332,200.61 126.963,200.61C126.313,200.653 125.662,200.653 124.989,200.653C120.315,200.653 115.744,200.209 111.315,199.362C100.686,197.329 89.706,198.272 79.694,202.378L58.032,211.26C56.89,211.728 55.807,210.476 56.436,209.413C65.555,193.994 66.77,175.005 59.159,158.789C54.769,149.435 52.313,138.994 52.313,127.977C52.313,125.786 52.4,123.638 52.595,121.512C52.617,121.382 52.617,121.252 52.638,121.121C52.703,120.319 52.79,119.516 52.899,118.713C52.899,118.67 52.899,118.627 52.92,118.583C52.985,118.019 53.072,117.477 53.159,116.913C53.289,116.045 53.441,115.177 53.593,114.309L53.593,114.266L71.881,122.098L107.417,137.349C108.133,137.869 108.848,138.368 109.564,138.846C114.12,147.545 120.173,155.312 127.462,161.69C139.351,172.103 154.494,178.829 171.589,179.913C172.934,180.022 174.279,180.065 175.646,180.087Z" style="fill:rgb(12,61,125);fill-rule:nonzero;"/>
                </g>
                <g transform="matrix(1.34732,0,0,1.34732,-168.415,-168.939)">
                    <path d="M177.728,175.531C175.797,177.158 173.736,178.633 171.589,179.913C169.506,181.172 167.337,182.278 165.059,183.189C162.195,184.361 159.201,185.25 156.099,185.836C148.918,187.203 141.086,187.029 132.908,185.055C124.121,182.951 115.726,178.959 108.089,173.557C91.276,161.668 78.021,142.924 71.881,122.098L107.417,137.349L117.613,141.709L124.989,144.877L137.16,139.648C145.946,156.071 160.112,169.044 177.728,175.531Z" style="fill:rgb(23,114,232);fill-rule:nonzero;"/>
                </g>
                <g transform="matrix(1.34732,0,0,1.34732,-168.415,-168.939)">
                    <path d="M197.665,127.977C197.665,128.649 197.665,129.322 197.644,129.994C197.644,130.146 197.644,130.298 197.622,130.45C197.622,130.906 197.622,131.361 197.579,131.817C197.535,132.402 197.492,132.988 197.448,133.574C197.405,134.181 197.362,134.789 197.297,135.418C197.232,136.026 197.166,136.633 197.08,137.24C196.147,145.506 193.869,152.991 190.506,159.499C190.463,159.586 190.419,159.651 190.398,159.737C190.181,160.171 189.964,160.627 189.725,161.061C189.443,161.581 189.183,162.102 188.901,162.623C188.619,163.144 188.337,163.642 188.033,164.163C187.187,165.682 186.254,167.157 185.256,168.61C184.974,169.044 184.67,169.457 184.367,169.89C182.935,171.93 181.395,173.904 179.746,175.77C179.29,176.312 178.813,176.833 178.314,177.353C178.01,177.7 177.707,178.026 177.403,178.351C177.056,178.698 176.73,179.024 176.383,179.371C176.145,179.609 175.884,179.87 175.646,180.087C175.45,180.282 175.277,180.477 175.082,180.629C174.583,181.106 174.084,181.562 173.585,182.018C172.804,182.734 172.023,183.406 171.22,184.057C170.764,184.426 170.33,184.794 169.853,185.163C169.528,185.445 169.181,185.706 168.834,185.966L168.812,185.966C166.317,186.617 163.714,186.855 161.024,186.638C159.418,186.53 157.769,186.248 156.099,185.836C155.275,185.619 154.428,185.359 153.582,185.055C147.074,182.755 140.869,178.221 135.316,172.06C132.539,168.979 129.914,165.508 127.462,161.69C123.688,155.746 120.347,148.999 117.613,141.709L124.989,144.877L137.16,139.648L196.364,114.266C196.429,114.548 196.472,114.83 196.537,115.112C196.841,116.804 197.101,118.518 197.253,120.254C197.297,120.384 197.318,120.536 197.318,120.688C197.362,121.056 197.405,121.425 197.427,121.794C197.492,122.597 197.535,123.399 197.579,124.202L197.579,124.245C197.6,124.658 197.622,125.091 197.622,125.504C197.644,125.916 197.644,126.328 197.644,126.74C197.665,127.152 197.665,127.565 197.665,127.977Z" style="fill:rgb(111,167,241);fill-rule:nonzero;"/>
                </g>
                <g transform="matrix(1.34732,0,0,1.34732,-168.415,-168.939)">
                    <path d="M216.28,77.76L128.46,40.13C126.24,39.18 123.74,39.18 121.52,40.13L80.71,57.62L72.214,61.263C75.06,66.359 76.772,72.198 77.047,78.348C77.264,83.192 76.275,87.851 74.384,92.108C82.267,97.846 90.371,103.129 99.194,107.321C105.831,109.886 112.548,112.25 119.141,114.951C127.306,118.297 135.488,121.529 144.059,123.689C144.635,123.834 145.201,123.995 145.76,124.168L165.93,115.52L216.28,93.94C223.39,90.89 223.39,80.81 216.28,77.76Z" style="fill:rgb(111,167,241);fill-rule:nonzero;"/>
                </g>
                <g transform="matrix(1.34732,0,0,1.34732,-168.415,-168.939)">
                    <path d="M165.93,115.52L132.67,129.78L128.46,131.58L124.99,133.07L121.94,131.76L113.4,128.11L33.72,93.94C26.62,90.89 26.61,80.84 33.69,77.78L80.71,57.62C81.82,65.63 84.92,73.44 89.54,80.08C98.89,93.5 113.62,102.46 129.13,107.74C141.02,111.79 153.43,113.9 165.93,115.52Z" style="fill:rgb(42,125,234);fill-rule:nonzero;"/>
                </g>
                <g transform="matrix(1.34732,0,0,1.34732,-168.415,-168.939)">
                    <path d="M102.009,156.962C102.009,160.952 98.774,164.187 94.783,164.187C90.792,164.187 87.557,160.952 87.557,156.962C87.557,152.971 90.792,149.736 94.783,149.736C98.774,149.736 102.009,152.971 102.009,156.962ZM125,149.736C121.009,149.736 117.774,152.971 117.774,156.962C117.774,160.952 121.009,164.187 125,164.187C128.991,164.187 132.226,160.952 132.226,156.962C132.226,152.971 128.991,149.736 125,149.736ZM155.217,149.736C151.226,149.736 147.991,152.971 147.991,156.962C147.991,160.952 151.226,164.187 155.217,164.187C159.208,164.187 162.443,160.952 162.443,156.962C162.443,152.971 159.208,149.736 155.217,149.736Z" style="fill:white;fill-rule:nonzero;"/>
                </g>
            </g>
        </g>
        <g transform="matrix(1.92115,0,0,1.92115,290.781,132.711)">
            <g id="text-logo">
                <g>
                    <g id="text-logo-path-0">
                        <path d="M16.99,0.8C24.23,0.8 31.24,-3.25 31.24,-11.06C31.24,-18.75 25.19,-21.95 18.64,-23.94C16.87,-24.51 15.56,-25.02 14.71,-25.42C13.51,-25.99 12.65,-26.62 12.65,-28.04C12.65,-29.7 14.76,-30.32 16.07,-30.32C19.15,-30.32 20.69,-28.96 22,-26.28L30.1,-31.01C27.3,-36.77 22.46,-39.73 16.07,-39.73C9.12,-39.73 3.19,-35.23 3.19,-28.04C3.19,-20.69 8.44,-17.78 14.76,-15.9C16.76,-15.33 18.18,-14.82 19.15,-14.42C20.46,-13.91 21.77,-13.22 21.77,-11.63C21.77,-9.52 18.92,-8.49 17.21,-8.49C13.51,-8.49 10.94,-9.92 9.52,-13.45L1.54,-8.78C4.1,-2.22 10.15,0.8 16.99,0.8ZM52.61,-38.99L37.73,-38.99L37.73,0L47.2,0L47.2,-12.54L52.61,-12.54C59.96,-12.54 65.89,-18.47 65.89,-25.76C65.89,-33.06 59.96,-38.99 52.61,-38.99ZM47.2,-21.55L47.2,-29.98L52.61,-29.98C55.06,-29.98 56.83,-28.21 56.83,-25.76C56.83,-23.37 55.01,-21.55 52.61,-21.55L47.2,-21.55ZM81.85,-8.95L81.85,-15.45L95.42,-15.45L95.42,-24.4L81.85,-24.4L81.85,-29.98L96.79,-29.98L96.79,-38.99L72.33,-38.99L72.33,0L97.07,0L97.07,-8.95L81.85,-8.95ZM130.87,0L141.02,0L126.71,-38.99L116.57,-38.99L102.32,0L112.46,0L114.97,-6.78L128.36,-6.78L130.87,0ZM118.22,-15.79L121.7,-25.19L125.06,-15.79L118.22,-15.79ZM169.8,0L181.6,0L165.47,-21.26L179.72,-38.99L167.75,-38.99L155.84,-24.34L155.84,-38.99L146.32,-38.99L146.32,0L155.84,0L155.84,-9.18L159.37,-13.62L169.8,0ZM201.38,0.8C208.62,0.8 215.63,-3.25 215.63,-11.06C215.63,-18.75 209.59,-21.95 203.03,-23.94C201.27,-24.51 199.96,-25.02 199.1,-25.42C197.9,-25.99 197.05,-26.62 197.05,-28.04C197.05,-29.7 199.16,-30.32 200.47,-30.32C203.55,-30.32 205.09,-28.96 206.4,-26.28L214.49,-31.01C211.7,-36.77 206.85,-39.73 200.47,-39.73C193.52,-39.73 187.59,-35.23 187.59,-28.04C187.59,-20.69 192.83,-17.78 199.16,-15.9C201.15,-15.33 202.58,-14.82 203.55,-14.42C204.86,-13.91 206.17,-13.22 206.17,-11.63C206.17,-9.52 203.32,-8.49 201.61,-8.49C197.9,-8.49 195.34,-9.92 193.91,-13.45L185.93,-8.78C188.5,-2.22 194.54,0.8 201.38,0.8ZM231.53,-8.95L231.53,-15.45L245.1,-15.45L245.1,-24.4L231.53,-24.4L231.53,-29.98L246.47,-29.98L246.47,-38.99L222.02,-38.99L222.02,0L246.75,0L246.75,-8.95L231.53,-8.95ZM277.02,-38.99L277.02,-19.15L264.37,-38.99L254.85,-38.99L254.85,0L264.37,0L264.37,-22.29L278.62,0L286.54,0L286.54,-38.99L277.02,-38.99ZM296.34,-38.99L296.34,0L305.86,0L305.86,-38.99L296.34,-38.99ZM332.99,0.8C344.17,0.8 353.06,-8.27 353.06,-19.32C353.06,-30.55 344.11,-39.39 332.99,-39.39C321.82,-39.39 312.87,-30.38 312.87,-19.32C312.87,-8.32 321.88,0.8 332.99,0.8ZM322.34,-19.32C322.34,-25.14 327.24,-29.93 332.99,-29.93C338.87,-29.93 343.54,-25.14 343.54,-19.32C343.54,-13.51 338.87,-8.72 332.99,-8.72C327.18,-8.72 322.34,-13.57 322.34,-19.32ZM374.09,-12.54L381.1,0L391.93,0L383.78,-14.71C387.54,-17.16 389.71,-21.32 389.71,-25.76C389.71,-33.12 383.84,-38.99 376.54,-38.99L360.01,-38.99L360.01,0L369.53,0L369.53,-12.54L374.09,-12.54ZM369.53,-21.55L369.53,-29.98L376.54,-29.98C378.94,-29.98 380.76,-28.16 380.76,-25.76C380.76,-23.48 378.82,-21.55 376.54,-21.55L369.53,-21.55Z" style="fill:rgb(12,61,125);fill-rule:nonzero;"/>
                    </g>
                </g>
            </g>
        </g>
        <g transform="matrix(1.92115,0,0,1.92115,297.12,188.827)">
            <g id="tagline-197bb43a-ead5-47d6-aea7-cd3be4b0309f-logo">
                <g>
                    <g id="tagline-197bb43a-ead5-47d6-aea7-cd3be4b0309f-logo-path-0">
                        <path d="M1.26,0L12.39,0L12.39,-2.52L3.78,-2.52L3.78,-14.7L1.26,-14.7L1.26,0ZM22.26,0L33.39,0L33.39,-2.52L24.78,-2.52L24.78,-6.62L31.29,-6.62L31.29,-9.13L24.78,-9.13L24.78,-12.18L33.39,-12.18L33.39,-14.7L22.26,-14.7L22.26,0ZM50.5,0L56.49,-14.7L53.76,-14.7L49.14,-3.36L44.52,-14.7L41.79,-14.7L47.77,0L50.5,0ZM65.31,0L76.44,0L76.44,-2.52L67.83,-2.52L67.83,-6.62L74.34,-6.62L74.34,-9.13L67.83,-9.13L67.83,-12.18L76.44,-12.18L76.44,-14.7L65.31,-14.7L65.31,0ZM86.31,0L97.44,0L97.44,-2.52L88.83,-2.52L88.83,-14.7L86.31,-14.7L86.31,0ZM129.51,-14.7L129.51,-6.66C129.51,-3.3 128.56,-2.42 125.31,-2.42C122.03,-2.42 121.11,-3.4 121.11,-6.66L121.11,-14.7L118.59,-14.7L118.59,-6.66C118.59,-2.06 120.54,0.11 125.31,0.11C129.91,0.11 132.03,-1.83 132.03,-6.66L132.03,-14.7L129.51,-14.7ZM144.14,0L144.14,-5.57L150.42,-5.57C152.92,-5.57 155,-7.62 155,-10.12C155,-12.64 152.92,-14.7 150.42,-14.7L141.62,-14.7L141.62,0L144.14,0ZM144.14,-8.09L144.14,-12.18L150.42,-12.18C151.54,-12.18 152.48,-11.26 152.48,-10.12C152.48,-9.01 151.54,-8.09 150.42,-8.09L144.14,-8.09ZM186.5,-14.7L182.07,-8.9L177.64,-14.7L174.45,-14.7L180.81,-6.41L180.81,0L183.33,0L183.33,-6.41L189.69,-14.7L186.5,-14.7ZM203.22,-2.42C200.47,-2.42 198.3,-4.6 198.3,-7.37C198.3,-10.12 200.47,-12.29 203.22,-12.29C205.97,-12.29 208.13,-10.12 208.13,-7.37C208.13,-4.6 205.97,-2.42 203.22,-2.42ZM203.22,0.11C207.35,0.11 210.65,-3.21 210.65,-7.37C210.65,-11.51 207.35,-14.81 203.22,-14.81C199.08,-14.81 195.78,-11.51 195.78,-7.37C195.78,-3.21 199.08,0.11 203.22,0.11ZM230.39,-14.7L230.39,-6.66C230.39,-3.3 229.45,-2.42 226.19,-2.42C222.92,-2.42 221.99,-3.4 221.99,-6.66L221.99,-14.7L219.47,-14.7L219.47,-6.66C219.47,-2.06 221.42,0.11 226.19,0.11C230.79,0.11 232.91,-1.83 232.91,-6.66L232.91,-14.7L230.39,-14.7ZM245.03,0L245.03,-5.57L250.26,-5.57L253.64,0L256.58,0L253.01,-5.9C254.69,-6.57 255.89,-8.21 255.89,-10.12C255.89,-12.64 253.81,-14.7 251.31,-14.7L242.51,-14.7L242.51,0L245.03,0ZM245.03,-8.09L245.03,-12.18L251.31,-12.18C252.42,-12.18 253.37,-11.26 253.37,-10.12C253.37,-9.01 252.42,-8.09 251.31,-8.09L245.03,-8.09ZM277.03,0L288.16,0L288.16,-2.52L279.55,-2.52L279.55,-6.62L286.06,-6.62L286.06,-9.13L279.55,-9.13L279.55,-12.18L288.16,-12.18L288.16,-14.7L277.03,-14.7L277.03,0ZM300.55,0L300.55,-11.24L308.26,0L311.47,0L311.47,-14.7L308.95,-14.7L308.95,-3.47L301.25,-14.7L298.03,-14.7L298.03,0L300.55,0ZM328,-6.11L332.77,-6.11C332.22,-3.93 330.33,-2.42 328,-2.42C325.23,-2.42 323.09,-4.58 323.09,-7.37C323.09,-10.14 325.23,-12.29 328,-12.29C329.39,-12.29 330.62,-11.74 331.49,-10.88L333.25,-12.64C331.95,-13.97 330.06,-14.81 328,-14.81C323.84,-14.81 320.57,-11.53 320.57,-7.37C320.57,-3.19 323.84,0.11 328,0.11C332.58,0.11 336.06,-3.89 335.33,-8.63L328,-8.63L328,-6.11ZM344.38,0L355.51,0L355.51,-2.52L346.9,-2.52L346.9,-14.7L344.38,-14.7L344.38,0ZM367.9,0L367.9,-14.7L365.38,-14.7L365.38,0L367.9,0ZM384.93,-11.07L387.45,-11.07C387.45,-13.42 385.71,-14.81 382.39,-14.81C379.34,-14.81 377.37,-13.63 377.37,-11.07C377.37,-8.76 378.8,-7.62 382.12,-6.91C385.43,-6.2 386.13,-5.88 386.13,-4.66C386.13,-3 385.22,-2.42 382.39,-2.42C380.35,-2.42 379.34,-2.88 378.95,-3.57L376.76,-2.35C377.71,-0.65 379.6,0.11 382.39,0.11C386.25,0.11 388.65,-1.24 388.65,-4.66C388.65,-7.79 386.32,-8.59 382.66,-9.39C380.35,-9.87 379.89,-10.23 379.89,-11.07C379.89,-11.91 380.46,-12.29 382.39,-12.29C384.34,-12.29 384.93,-11.89 384.93,-11.07ZM400.16,0L400.16,-6.09L407.51,-6.09L407.51,0L410.03,0L410.03,-14.7L407.51,-14.7L407.51,-8.61L400.16,-8.61L400.16,-14.7L397.64,-14.7L397.64,0L400.16,0Z" style="fill:rgb(23,114,232);fill-rule:nonzero;"/>
                    </g>
                </g>
            </g>
        </g>
    </g>
</svg>
